<?xml version="1.0" standalone="no"?>
<!DOCTYPE svg PUBLIC "-//W3C//DTD SVG 20010904//EN"
 "http://www.w3.org/TR/2001/REC-SVG-20010904/DTD/svg10.dtd">
<svg version="1.0" xmlns="http://www.w3.org/2000/svg"
 width="512.000000pt" height="512.000000pt" viewBox="0 0 512.000000 512.000000"
 preserveAspectRatio="xMidYMid meet">
<metadata>
Created by potrace 1.11, written by Peter Selinger 2001-2013
</metadata>
<g transform="translate(0.000000,512.000000) scale(0.100000,-0.100000)"
fill="#000000" stroke="none">
<path d="M845 4600 c3 -14 25 -77 47 -140 23 -63 47 -133 54 -155 7 -22 53
-158 102 -301 l90 -261 -240 1 c-132 0 -242 -2 -244 -6 -5 -8 27 -57 131 -198
39 -52 78 -106 88 -120 9 -14 34 -48 55 -76 20 -29 111 -154 202 -279 91 -124
170 -234 175 -243 6 -9 12 -19 15 -22 3 -3 38 -50 78 -105 105 -147 105 -146
108 -142 2 2 -48 154 -110 338 -63 184 -116 341 -119 349 -3 8 -12 37 -22 63
-9 26 -14 54 -11 63 3 8 2 13 -3 10 -9 -6 -25 24 -17 32 3 2 115 4 250 4 228
-1 245 0 239 16 -4 9 -9 19 -13 22 -4 3 -75 100 -160 215 -84 116 -168 230
-186 255 -47 64 -289 395 -384 525 -44 61 -83 115 -88 120 -4 6 -16 21 -26 35
l-18 25 7 -25z"/>
<path d="M4220 4542 c-30 -42 -82 -113 -115 -158 -33 -45 -161 -220 -285 -390
-124 -169 -247 -337 -273 -373 -26 -36 -53 -73 -60 -81 -15 -20 -71 -101 -81
-117 -5 -9 53 -11 244 -10 137 1 250 1 250 0 0 -1 -25 -76 -55 -165 -31 -90
-79 -232 -107 -315 -27 -84 -55 -153 -60 -153 -5 0 -7 -4 -4 -9 3 -5 -10 -56
-29 -114 -19 -58 -35 -108 -35 -112 0 -4 46 58 103 137 57 79 145 202 197 273
51 72 128 177 170 235 223 306 390 539 390 547 0 4 -107 7 -237 7 -131 -1
-241 0 -245 2 -4 3 -2 17 4 32 5 15 34 97 63 182 29 85 92 267 139 404 48 137
85 250 84 251 -2 2 -28 -31 -58 -73z"/>
<path d="M2490 3931 c-249 -63 -366 -323 -249 -553 11 -21 44 -62 74 -92 l54
-54 -60 -154 c-33 -84 -63 -162 -68 -173 -9 -19 -153 -390 -288 -742 -38 -99
-70 -170 -76 -166 -6 3 -7 1 -3 -6 6 -9 -170 -484 -239 -646 -7 -16 -24 -59
-38 -95 -14 -36 -64 -166 -112 -289 -95 -243 -103 -286 -71 -357 74 -159 305
-147 370 20 14 36 29 49 111 99 53 31 100 57 105 57 6 0 10 3 10 8 0 4 17 16
38 27 20 11 55 31 77 45 22 15 120 75 219 135 l179 108 51 -26 c28 -15 69 -37
91 -50 22 -12 81 -45 130 -72 50 -28 99 -55 110 -62 11 -6 34 -19 50 -27 17
-8 53 -28 80 -43 28 -16 110 -61 183 -102 113 -62 136 -79 152 -112 27 -52 61
-86 103 -104 78 -32 177 -9 231 56 66 78 64 129 -12 324 -33 83 -100 258 -151
390 -51 132 -97 249 -101 260 -9 18 -65 162 -156 400 -19 50 -39 100 -44 113
-17 37 -27 64 -50 127 -12 33 -26 69 -31 80 -10 23 -82 210 -194 500 -42 110
-81 209 -86 220 -5 11 -29 73 -54 139 -43 111 -45 119 -28 131 104 74 164 185
165 307 2 257 -227 442 -472 379z m141 -1421 c22 -58 42 -109 43 -115 1 -5 5
-15 9 -21 7 -12 67 -172 67 -180 0 -9 -164 -104 -179 -104 -14 0 -163 94 -168
106 -3 9 29 96 140 378 24 62 32 75 39 60 4 -10 26 -66 49 -124z m-221 -519
c0 -3 -27 -23 -60 -43 -64 -40 -70 -36 -40 27 11 22 19 46 20 53 0 9 12 7 40
-9 22 -13 40 -25 40 -28z m419 7 c10 -24 21 -53 25 -66 l8 -23 -39 24 c-21 13
-51 32 -67 42 l-29 17 39 23 c22 13 40 24 42 24 1 1 11 -18 21 -41z m147 -377
c14 -36 14 -45 3 -52 -8 -5 -81 -50 -164 -100 -82 -50 -183 -111 -223 -136
l-73 -45 -39 26 c-22 14 -42 26 -45 26 -3 0 -58 30 -122 67 -65 36 -133 73
-150 82 -18 8 -33 18 -33 21 0 3 13 39 29 80 l29 75 193 116 193 116 193 -116
c183 -111 193 -118 209 -160z m109 -278 c16 -43 30 -80 31 -83 0 -3 6 -18 13
-35 7 -16 24 -59 38 -95 13 -36 40 -104 59 -152 19 -49 34 -90 34 -93 0 -3
-19 5 -42 19 -24 13 -70 40 -104 58 -274 150 -424 234 -424 238 0 7 341 218
355 219 6 1 24 -34 40 -76z m-881 -60 c177 -97 168 -83 84 -134 -40 -24 -74
-47 -76 -51 -2 -5 -8 -8 -12 -8 -5 0 -75 -40 -155 -89 -80 -50 -145 -89 -145
-87 0 7 34 102 40 111 3 6 33 81 66 167 32 87 63 158 68 158 5 0 63 -30 130
-67z"/>
</g>
</svg>
